<?xml version="1.0" encoding="utf-8"?>
<!-- Generator: Adobe Illustrator 17.0.0, SVG Export Plug-In . SVG Version: 6.00 Build 0)  -->
<!DOCTYPE svg PUBLIC "-//W3C//DTD SVG 1.1//EN" "http://www.w3.org/Graphics/SVG/1.1/DTD/svg11.dtd">
<svg version="1.1" id="Layer_1" xmlns="http://www.w3.org/2000/svg" xmlns:xlink="http://www.w3.org/1999/xlink" x="0px" y="0px"
	 width="200px" height="109.105px" viewBox="-60.249 0.773 200 109.105" enable-background="new -60.249 0.773 200 109.105"
	 xml:space="preserve">
<g>
	<g>
		<path fill="#B68479" d="M85.971,80.817H-0.222c-2.085,0-3.78-1.696-3.78-3.78v-52.17c0-2.085,1.696-3.78,3.78-3.78H85.97
			c2.085,0,3.78,1.696,3.78,3.78v52.169C89.751,79.121,88.055,80.817,85.971,80.817z M-0.222,24.111
			c-0.417,0-0.756,0.339-0.756,0.756v52.169c0,0.417,0.339,0.756,0.756,0.756H85.97c0.417,0,0.756-0.339,0.756-0.756V24.867
			c0-0.417-0.339-0.756-0.756-0.756H-0.222z"/>
	</g>
	<g>
		<path fill="#B68479" d="M80.48,84.796c0,1.253-1.016,2.268-2.268,2.268H-7.981c-1.253,0-2.268-1.016-2.268-2.268V32.627
			c0-1.253,1.016-2.268,2.268-2.268h86.192c1.253,0,2.268,1.016,2.268,2.268v52.169H80.48z"/>
	</g>
</g>
<g>
	<g>
		<polygon fill="#B68479" points="-60.249,54.991 -52.801,51.674 -51.312,43.659 -45.856,49.717 -37.773,48.657 -41.848,55.718 
			-38.342,63.078 -46.317,61.384 -52.233,66.992 -53.086,58.885 		"/>
	</g>
	<g>
		<polygon fill="#B68479" points="-34.054,21.145 -31.133,13.534 -35.747,6.813 -27.606,7.239 -22.639,0.773 -20.529,8.648 
			-12.845,11.373 -19.682,15.814 -19.899,23.964 -26.236,18.834 		"/>
	</g>
	<g>
		<polygon fill="#B68479" points="-33.073,88.67 -25.462,91.59 -18.74,86.976 -19.166,95.117 -12.701,100.084 -20.575,102.195 
			-23.301,109.878 -27.742,103.041 -35.891,102.824 -30.761,96.488 		"/>
	</g>
</g>
<g>
	<g>
		<polygon fill="#B68479" points="139.751,54.991 132.304,51.674 130.814,43.659 125.358,49.717 117.275,48.657 121.351,55.718 
			117.844,63.078 125.819,61.384 131.735,66.992 132.589,58.885 		"/>
	</g>
	<g>
		<polygon fill="#B68479" points="113.556,21.145 110.635,13.534 115.25,6.813 107.108,7.239 102.142,0.773 100.031,8.648 
			92.347,11.373 99.184,15.814 99.402,23.964 105.738,18.834 		"/>
	</g>
	<g>
		<polygon fill="#B68479" points="112.575,88.67 104.964,91.59 98.243,86.976 98.669,95.117 92.203,100.084 100.078,102.195 
			102.803,109.878 107.244,103.041 115.394,102.824 110.264,96.488 		"/>
	</g>
</g>
<g>
	<rect x="9.953" y="48.731" fill="none" width="50.325" height="25.703"/>
	<g enable-background="new    ">
		<path fill="#FFFFFF" d="M29.101,49.632H42v4.05h-8.939l-0.24,3.63c0.84-0.211,1.59-0.361,2.76-0.361c4.14,0,7.35,1.98,7.35,6.75
			c0,4.471-3.15,7.291-7.98,7.291c-3.36,0-5.819-1.201-7.859-3.15l2.79-3.33c1.59,1.439,3.149,2.279,5.01,2.279
			c2.16,0,3.51-1.049,3.51-2.939c0-1.83-1.47-2.879-3.72-2.879c-1.32,0-2.52,0.359-3.51,0.779l-2.67-1.77L29.101,49.632z"/>
	</g>
</g>
<g>
	<rect x="6.469" y="48.307" fill="none" width="25.656" height="14.037"/>
	<g enable-background="new    ">
		<path fill="#FFFFFF" d="M20.062,59.243v1.484h-1.305v-1.5c-1.306-0.149-2.521-0.675-3.54-1.484l0.96-1.365
			c0.854,0.69,1.665,1.14,2.64,1.29v-2.94c-2.189-0.569-3.21-1.395-3.21-3.09c0-1.619,1.275-2.729,3.15-2.88v-0.869h1.305v0.899
			c1.095,0.135,1.995,0.525,2.819,1.14l-0.84,1.41c-0.659-0.495-1.335-0.81-2.04-0.96v2.851c2.28,0.569,3.255,1.484,3.255,3.104
			C23.256,57.982,21.967,59.078,20.062,59.243z M18.816,50.273c-0.945,0.075-1.439,0.6-1.439,1.26c0,0.63,0.284,1.035,1.439,1.38
			V50.273z M20.001,55.012v2.715c0.945-0.074,1.485-0.569,1.485-1.29C21.486,55.762,21.172,55.358,20.001,55.012z"/>
	</g>
</g>
</svg>
