<?xml version="1.0" encoding="utf-8"?>
<!-- Generator: Adobe Illustrator 17.0.0, SVG Export Plug-In . SVG Version: 6.00 Build 0)  -->
<!DOCTYPE svg PUBLIC "-//W3C//DTD SVG 1.1//EN" "http://www.w3.org/Graphics/SVG/1.1/DTD/svg11.dtd">
<svg version="1.1" id="Layer_1" xmlns="http://www.w3.org/2000/svg" xmlns:xlink="http://www.w3.org/1999/xlink" x="0px" y="0px"
	 width="24.562px" height="24.562px" viewBox="0 0 24.562 24.562" enable-background="new 0 0 24.562 24.562" xml:space="preserve">
<g>
	<g>
		<path fill="#B68479" d="M20.094,24.562H4.469C2.005,24.562,0,22.558,0,20.094V4.469C0,2.005,2.005,0,4.469,0h15.625
			c2.464,0,4.469,2.005,4.469,4.469v15.625C24.562,22.558,22.558,24.562,20.094,24.562z M4.469,1.125
			c-1.844,0-3.344,1.5-3.344,3.344v15.625c0,1.844,1.5,3.344,3.344,3.344h15.625c1.844,0,3.344-1.5,3.344-3.344V4.469
			c0-1.844-1.5-3.344-3.344-3.344H4.469z"/>
	</g>
	<g>
		<path fill="#B68479" d="M12.281,18.703c-3.541,0-6.422-2.881-6.422-6.422s2.881-6.422,6.422-6.422s6.422,2.881,6.422,6.422
			S15.822,18.703,12.281,18.703z M12.281,6.984c-2.921,0-5.297,2.376-5.297,5.297s2.376,5.297,5.297,5.297s5.297-2.376,5.297-5.297
			S15.202,6.984,12.281,6.984z"/>
	</g>
	<g>
		<circle fill="#B68479" cx="19.117" cy="5.445" r="0.977"/>
	</g>
</g>
</svg>
