<?xml version="1.0" encoding="utf-8"?>
<!-- Generator: Adobe Illustrator 17.0.0, SVG Export Plug-In . SVG Version: 6.00 Build 0)  -->
<!DOCTYPE svg PUBLIC "-//W3C//DTD SVG 1.1//EN" "http://www.w3.org/Graphics/SVG/1.1/DTD/svg11.dtd">
<svg version="1.1" id="Layer_1" xmlns="http://www.w3.org/2000/svg" xmlns:xlink="http://www.w3.org/1999/xlink" x="0px" y="0px"
	 width="29.25px" height="25.5px" viewBox="0 0 29.25 25.5" enable-background="new 0 0 29.25 25.5" xml:space="preserve">
<g>
	<g>
		<polygon fill="#B68479" points="28.688,10.875 14.625,17.906 0.563,10.875 		"/>
	</g>
	<g>
		<path fill="#B68479" d="M28.687,10.986c-0.311,0-0.562-0.252-0.562-0.562V7.941l-13.5-6.75l-13.5,6.75v2.482
			c0,0.311-0.252,0.562-0.562,0.562S0,10.735,0,10.424v-2.83c0-0.213,0.12-0.408,0.311-0.503l14.062-7.031
			c0.158-0.079,0.345-0.079,0.503,0l14.062,7.031c0.19,0.095,0.311,0.29,0.311,0.503v2.83C29.25,10.735,28.998,10.986,28.687,10.986
			z"/>
	</g>
	<g>
		<path fill="#B68479" d="M26.93,25.5H2.32C1.041,25.5,0,24.459,0,23.18V10.875c0-0.311,0.252-0.562,0.562-0.562h28.125
			c0.311,0,0.562,0.252,0.562,0.562V23.18C29.25,24.459,28.209,25.5,26.93,25.5z M1.125,11.437V23.18
			c0,0.659,0.536,1.195,1.195,1.195H26.93c0.659,0,1.195-0.536,1.195-1.195V11.437H1.125z"/>
	</g>
	<g>
		<path fill="#B68479" d="M28.687,11.437H0.562C0.252,11.437,0,11.186,0,10.875s0.252-0.562,0.562-0.562h28.125
			c0.311,0,0.562,0.252,0.562,0.562S28.998,11.437,28.687,11.437z"/>
	</g>
</g>
</svg>
