<?xml version="1.0" encoding="utf-8"?>
<!-- Generator: Adobe Illustrator 17.0.0, SVG Export Plug-In . SVG Version: 6.00 Build 0)  -->
<!DOCTYPE svg PUBLIC "-//W3C//DTD SVG 1.1//EN" "http://www.w3.org/Graphics/SVG/1.1/DTD/svg11.dtd">
<svg version="1.1" id="Layer_1" xmlns="http://www.w3.org/2000/svg" xmlns:xlink="http://www.w3.org/1999/xlink" x="0px" y="0px"
	 width="28.4px" height="34.201px" viewBox="0 0 28.4 34.201" enable-background="new 0 0 28.4 34.201" xml:space="preserve">
<g>
	<g>
		<path fill="#B68479" d="M27.506,34.201H0.895C0.401,34.201,0,33.8,0,33.306l1.179-22.649C1.178,10.193,1.58,9.792,2.074,9.792
			h24.254c0.494,0,0.895,0.402,0.895,0.895l1.178,22.59C28.401,33.8,28,34.201,27.506,34.201z M1.138,33.076h26.126l-1.155-22.16
			H2.291L1.138,33.076z"/>
	</g>
	<g>
		<g>
			<path fill="#B68479" d="M21.228,15.667h-0.75v-8.64c0-3.462-2.816-6.278-6.278-6.278S7.923,3.566,7.923,7.028v8.64h-0.75v-8.64
				C7.173,3.153,10.326,0,14.201,0s7.028,3.153,7.028,7.028V15.667z"/>
		</g>
		<g>
			<g>
				<circle fill="#B68479" cx="20.853" cy="15.597" r="1.41"/>
			</g>
		</g>
		<g>
			<g>
				<circle fill="#B68479" cx="7.548" cy="15.597" r="1.41"/>
			</g>
		</g>
	</g>
</g>
</svg>
