<?xml version="1.0" encoding="utf-8"?>
<!-- Generator: Adobe Illustrator 17.0.0, SVG Export Plug-In . SVG Version: 6.00 Build 0)  -->
<!DOCTYPE svg PUBLIC "-//W3C//DTD SVG 1.1//EN" "http://www.w3.org/Graphics/SVG/1.1/DTD/svg11.dtd">
<svg version="1.1" id="Layer_1" xmlns="http://www.w3.org/2000/svg" xmlns:xlink="http://www.w3.org/1999/xlink" x="0px" y="0px"
	 width="38.25px" height="27.117px" viewBox="0 0 38.25 27.117" enable-background="new 0 0 38.25 27.117" xml:space="preserve">
<g>
	<g>
		<path fill="#B68479" d="M31.828,27.117c-0.086,0-0.172-0.02-0.252-0.059l-5.74-2.87H17.18c-1.926,0-3.492-1.567-3.492-3.492v-5.86
			h1.125v5.86c0,1.305,1.062,2.367,2.367,2.367h8.791c0.087,0,0.174,0.02,0.252,0.059l5.044,2.522l0-2.019
			c0-0.149,0.059-0.292,0.165-0.398s0.249-0.165,0.398-0.165h2.93c1.305,0,2.367-1.062,2.367-2.367v-8.789
			c0-1.305-1.062-2.367-2.367-2.367H23.625V8.414h11.132c1.926,0,3.492,1.567,3.492,3.492v8.789c0,1.926-1.567,3.492-3.492,3.492
			h-2.367l0,2.367c0,0.195-0.101,0.376-0.267,0.478C32.034,27.089,31.931,27.117,31.828,27.117z"/>
	</g>
	<g>
		<path fill="#B68479" d="M20.695,0.188H3.117c-1.618,0-2.93,1.312-2.93,2.93v8.789c0,1.618,1.312,2.93,2.93,2.93h2.93l0,2.929
			l5.858-2.929h8.791c1.618,0,2.93-1.312,2.93-2.93V3.117C23.625,1.499,22.313,0.188,20.695,0.188z M7.512,8.977
			c-0.809,0-1.465-0.656-1.465-1.465s0.656-1.465,1.465-1.465c0.809,0,1.465,0.656,1.465,1.465S8.321,8.977,7.512,8.977z
			 M11.906,8.977c-0.809,0-1.465-0.656-1.465-1.465s0.656-1.465,1.465-1.465c0.809,0,1.465,0.656,1.465,1.465
			S12.715,8.977,11.906,8.977z M16.301,8.977c-0.809,0-1.465-0.656-1.465-1.465s0.656-1.465,1.465-1.465
			c0.809,0,1.465,0.656,1.465,1.465S17.11,8.977,16.301,8.977z"/>
		<path fill="#B68479" d="M6.047,17.953c-0.034,0-0.068-0.009-0.099-0.028c-0.055-0.034-0.089-0.094-0.089-0.159v-2.742H3.117
			C1.398,15.023,0,13.625,0,11.906V3.117C0,1.398,1.398,0,3.117,0h17.578c1.719,0,3.117,1.398,3.117,3.117v8.789
			c0,1.719-1.398,3.117-3.117,3.117h-8.746l-5.818,2.91C6.104,17.946,6.075,17.953,6.047,17.953z M3.117,0.375
			c-1.512,0-2.742,1.23-2.742,2.742v8.789c0,1.512,1.23,2.742,2.742,2.742h2.93c0.104,0,0.188,0.084,0.188,0.188v2.626l5.587-2.794
			c0.026-0.013,0.055-0.02,0.084-0.02h8.791c1.512,0,2.742-1.23,2.742-2.742V3.117c0-1.512-1.23-2.742-2.742-2.742H3.117z
			 M16.301,9.164c-0.911,0-1.652-0.741-1.652-1.652s0.741-1.652,1.652-1.652s1.652,0.741,1.652,1.652S17.212,9.164,16.301,9.164z
			 M16.301,6.234c-0.704,0-1.277,0.573-1.277,1.277s0.573,1.277,1.277,1.277s1.277-0.573,1.277-1.277S17.005,6.234,16.301,6.234z
			 M11.906,9.164c-0.911,0-1.652-0.741-1.652-1.652s0.741-1.652,1.652-1.652s1.652,0.741,1.652,1.652S12.817,9.164,11.906,9.164z
			 M11.906,6.234c-0.704,0-1.277,0.573-1.277,1.277s0.573,1.277,1.277,1.277s1.277-0.573,1.277-1.277S12.61,6.234,11.906,6.234z
			 M7.512,9.164c-0.911,0-1.652-0.741-1.652-1.652s0.741-1.652,1.652-1.652s1.652,0.741,1.652,1.652S8.423,9.164,7.512,9.164z
			 M7.512,6.234c-0.704,0-1.277,0.573-1.277,1.277s0.573,1.277,1.277,1.277s1.277-0.573,1.277-1.277S8.216,6.234,7.512,6.234z"/>
	</g>
</g>
</svg>
