<?xml version="1.0" encoding="utf-8"?>
<!-- Generator: Adobe Illustrator 17.0.0, SVG Export Plug-In . SVG Version: 6.00 Build 0)  -->
<!DOCTYPE svg PUBLIC "-//W3C//DTD SVG 1.1//EN" "http://www.w3.org/Graphics/SVG/1.1/DTD/svg11.dtd">
<svg version="1.1" id="Layer_1" xmlns="http://www.w3.org/2000/svg" xmlns:xlink="http://www.w3.org/1999/xlink" x="0px" y="0px"
	 width="25.926px" height="25.038px" viewBox="0 0 25.926 25.038" enable-background="new 0 0 25.926 25.038" xml:space="preserve">
<g>
	<g>
		<g>
			<path fill="#B68479" d="M7.637,25.038H1.645C0.738,25.038,0,24.3,0,23.394V12.092c0-0.907,0.738-1.645,1.645-1.645h5.992
				c0.406,0,0.785,0.153,1.076,0.406l2.704-5.011c0.07-0.116,0.111-0.214,0.135-0.315c0.024-0.1,0.033-0.205,0.025-0.31L11.262,1.07
				l0.431-0.359C12.243,0.253,12.94,0,13.656,0c2.376,0,4.151,2.947,4.151,5.582c0,0.328-0.025,0.659-0.074,0.985l-0.263,1.7h4.969
				c0.865,0,1.715,0.357,2.333,0.978c0.6,0.605,0.928,1.393,0.922,2.218c-0.004,0.55-0.145,1.076-0.411,1.542
				c0.412,0.548,0.642,1.223,0.642,1.911c0,0.963-0.42,1.848-1.144,2.444c0.068,0.259,0.102,0.526,0.102,0.799
				c0,1.12-0.584,2.141-1.52,2.71c0.01,0.1,0.014,0.201,0.014,0.302c0,1.682-1.317,3.073-2.997,3.166l-0.045,0.001l-9.016,0.004
				c-0.134,0-1.093-0.018-2.095-0.518C9.035,24.523,8.395,25.038,7.637,25.038z M1.645,11.572c-0.287,0-0.52,0.233-0.52,0.52v11.302
				c0,0.287,0.233,0.52,0.52,0.52h5.992c0.287,0,0.52-0.233,0.52-0.52v-1.926l0.946,0.944c0.961,0.797,2.203,0.807,2.216,0.807
				l9.002-0.003c1.083-0.06,1.932-0.958,1.932-2.043c0-0.163-0.019-0.325-0.057-0.481l-0.112-0.463l0.438-0.187
				c0.752-0.321,1.237-1.06,1.237-1.881c0-0.276-0.054-0.543-0.16-0.794l-0.191-0.448l0.416-0.253
				c0.612-0.372,0.977-1.026,0.977-1.749c0-0.546-0.225-1.08-0.617-1.464l-0.361-0.354l0.313-0.397
				c0.281-0.356,0.431-0.787,0.434-1.246c0.004-0.524-0.208-1.027-0.595-1.418c-0.408-0.411-0.967-0.646-1.535-0.646h-6.282
				l0.463-2.995c0.041-0.268,0.062-0.543,0.062-0.814c0-2.019-1.349-4.457-3.026-4.457c-0.447,0-0.883,0.156-1.228,0.439
				l0.271,3.568c0.017,0.223-0.001,0.445-0.053,0.66c-0.052,0.215-0.137,0.42-0.253,0.61l-3.125,5.793l-0.969,0.83L8.15,12.016
				c-0.037-0.253-0.258-0.444-0.513-0.444H1.645z"/>
		</g>
	</g>
	<g>
		<rect x="8.165" y="11.835" fill="#B68479" width="1.125" height="10.996"/>
	</g>
	<g>
		<path fill="#B68479" d="M0.929,11.286v12.889h7.453V11.286H0.929z M6.15,22.835c-0.518,0-0.938-0.42-0.938-0.938
			s0.42-0.938,0.938-0.938s0.938,0.42,0.938,0.938S6.667,22.835,6.15,22.835z"/>
	</g>
</g>
</svg>
