<?xml version="1.0" encoding="utf-8"?>
<!-- Generator: Adobe Illustrator 17.0.0, SVG Export Plug-In . SVG Version: 6.00 Build 0)  -->
<!DOCTYPE svg PUBLIC "-//W3C//DTD SVG 1.1//EN" "http://www.w3.org/Graphics/SVG/1.1/DTD/svg11.dtd">
<svg version="1.1" id="Layer_1" xmlns="http://www.w3.org/2000/svg" xmlns:xlink="http://www.w3.org/1999/xlink" x="0px" y="0px"
	 width="38.625px" height="29.139px" viewBox="0 0 38.625 29.139" enable-background="new 0 0 38.625 29.139" xml:space="preserve">
<g>
	<g>
		<path fill="#B68479" d="M19.312,14.139c-0.311,0-0.562-0.252-0.562-0.562v-7.5c0-0.311,0.252-0.562,0.562-0.562
			s0.562,0.252,0.562,0.562v7.5C19.875,13.887,19.623,14.139,19.312,14.139z"/>
	</g>
	<g>
		<path fill="#B68479" d="M26.812,14.139c-0.311,0-0.562-0.252-0.562-0.562v-7.5c0-0.311,0.252-0.562,0.562-0.562
			s0.562,0.252,0.562,0.562v7.5C27.375,13.887,27.123,14.139,26.812,14.139z"/>
	</g>
	<g>
		<path fill="#B68479" d="M11.812,14.139c-0.311,0-0.562-0.252-0.562-0.562v-7.5c0-0.311,0.252-0.562,0.562-0.562
			s0.562,0.252,0.562,0.562v7.5C12.375,13.887,12.123,14.139,11.812,14.139z"/>
	</g>
	<g>
		<path fill="#B68479" d="M34.312,21.076h-30v-3.75c0-2.071,1.679-3.75,3.75-3.75h22.5c2.071,0,3.75,1.679,3.75,3.75V21.076z"/>
	</g>
	<g>
		<path fill="#B68479" d="M34.312,28.951c-0.207,0-0.375-0.168-0.375-0.375v-11.25c0-1.861-1.514-3.375-3.375-3.375h-22.5
			c-1.861,0-3.375,1.514-3.375,3.375v11.25c0,0.207-0.168,0.375-0.375,0.375s-0.375-0.168-0.375-0.375v-11.25
			c0-2.275,1.85-4.125,4.125-4.125h22.5c2.275,0,4.125,1.85,4.125,4.125v11.25C34.687,28.783,34.52,28.951,34.312,28.951z"/>
	</g>
	<g>
		<path fill="#B68479" d="M38.062,29.139h-37.5C0.252,29.139,0,28.887,0,28.576s0.252-0.562,0.562-0.562h37.5
			c0.311,0,0.562,0.252,0.562,0.562S38.373,29.139,38.062,29.139z"/>
	</g>
	<g>
		<g>
			<path fill="#B68479" d="M4.312,23.798c-0.096,0-0.192-0.037-0.265-0.11c-0.146-0.146-0.146-0.384,0-0.53l2.343-2.343
				c0.146-0.146,0.384-0.146,0.53,0s0.146,0.384,0,0.53l-2.343,2.343C4.504,23.761,4.408,23.798,4.312,23.798z"/>
		</g>
		<g>
			<path fill="#B68479" d="M4.312,26.143c-0.096,0-0.192-0.037-0.265-0.11c-0.146-0.146-0.146-0.384,0-0.53l4.692-4.692
				c0.146-0.146,0.384-0.146,0.53,0s0.146,0.384,0,0.53l-4.692,4.692C4.504,26.106,4.408,26.143,4.312,26.143z"/>
		</g>
		<g>
			<path fill="#B68479" d="M3.881,28.919c-0.096,0-0.192-0.037-0.265-0.11c-0.146-0.146-0.146-0.384,0-0.53l7.464-7.464
				c0.146-0.146,0.384-0.146,0.53,0s0.146,0.384,0,0.53l-7.464,7.464C4.073,28.882,3.977,28.919,3.881,28.919z"/>
		</g>
		<g>
			<path fill="#B68479" d="M6.226,28.919c-0.096,0-0.192-0.037-0.265-0.11c-0.146-0.146-0.146-0.384,0-0.53l7.468-7.468
				c0.146-0.146,0.384-0.146,0.53,0s0.146,0.384,0,0.53l-7.468,7.468C6.418,28.882,6.322,28.919,6.226,28.919z"/>
		</g>
		<g>
			<path fill="#B68479" d="M8.571,28.919c-0.096,0-0.192-0.037-0.265-0.11c-0.146-0.146-0.146-0.384,0-0.53l7.468-7.468
				c0.146-0.146,0.384-0.146,0.53,0s0.146,0.384,0,0.53l-7.468,7.468C8.763,28.882,8.667,28.919,8.571,28.919z"/>
		</g>
		<g>
			<path fill="#B68479" d="M10.916,28.919c-0.096,0-0.192-0.037-0.265-0.11c-0.146-0.146-0.146-0.384,0-0.53l7.468-7.468
				c0.146-0.146,0.384-0.146,0.53,0s0.146,0.384,0,0.53l-7.468,7.468C11.107,28.882,11.012,28.919,10.916,28.919z"/>
		</g>
		<g>
			<path fill="#B68479" d="M13.26,28.919c-0.096,0-0.192-0.037-0.265-0.11c-0.146-0.146-0.146-0.384,0-0.53l7.468-7.468
				c0.146-0.146,0.384-0.146,0.53,0s0.146,0.384,0,0.53l-7.468,7.468C13.452,28.882,13.356,28.919,13.26,28.919z"/>
		</g>
		<g>
			<path fill="#B68479" d="M15.605,28.919c-0.096,0-0.192-0.037-0.265-0.11c-0.146-0.146-0.146-0.384,0-0.53l7.468-7.468
				c0.146-0.146,0.384-0.146,0.53,0s0.146,0.384,0,0.53l-7.468,7.468C15.797,28.882,15.701,28.919,15.605,28.919z"/>
		</g>
	</g>
	<g>
		<g>
			<path fill="#B68479" d="M17.963,28.919c-0.096,0-0.192-0.037-0.265-0.11c-0.146-0.146-0.146-0.384,0-0.53l7.468-7.468
				c0.146-0.146,0.384-0.146,0.53,0s0.146,0.384,0,0.53l-7.468,7.468C18.155,28.882,18.059,28.919,17.963,28.919z"/>
		</g>
		<g>
			<path fill="#B68479" d="M20.308,28.919c-0.096,0-0.192-0.037-0.265-0.11c-0.146-0.146-0.146-0.384,0-0.53l7.468-7.468
				c0.146-0.146,0.384-0.146,0.53,0s0.146,0.384,0,0.53l-7.468,7.468C20.5,28.882,20.404,28.919,20.308,28.919z"/>
		</g>
		<g>
			<path fill="#B68479" d="M22.653,28.919c-0.096,0-0.192-0.037-0.265-0.11c-0.146-0.146-0.146-0.384,0-0.53l7.468-7.468
				c0.146-0.146,0.384-0.146,0.53,0s0.146,0.384,0,0.53l-7.468,7.468C22.845,28.882,22.749,28.919,22.653,28.919z"/>
		</g>
		<g>
			<path fill="#B68479" d="M24.998,28.919c-0.096,0-0.192-0.037-0.265-0.11c-0.146-0.146-0.146-0.384,0-0.53l7.468-7.468
				c0.146-0.146,0.384-0.146,0.53,0s0.146,0.384,0,0.53l-7.468,7.468C25.189,28.882,25.093,28.919,24.998,28.919z"/>
		</g>
		<g>
			<path fill="#B68479" d="M27.342,28.919c-0.096,0-0.192-0.037-0.265-0.11c-0.146-0.146-0.146-0.384,0-0.53l6.938-6.938
				c0.146-0.146,0.384-0.146,0.53,0s0.146,0.384,0,0.53l-6.938,6.938C27.534,28.882,27.438,28.919,27.342,28.919z"/>
		</g>
		<g>
			<path fill="#B68479" d="M29.687,28.919c-0.096,0-0.192-0.037-0.265-0.11c-0.146-0.146-0.146-0.384,0-0.53l4.625-4.625
				c0.146-0.146,0.384-0.146,0.53,0s0.146,0.384,0,0.53l-4.625,4.625C29.879,28.882,29.783,28.919,29.687,28.919z"/>
		</g>
		<g>
			<path fill="#B68479" d="M32.032,28.919c-0.096,0-0.192-0.037-0.265-0.11c-0.146-0.146-0.146-0.384,0-0.53l2.28-2.28
				c0.146-0.146,0.384-0.146,0.53,0s0.146,0.384,0,0.53l-2.28,2.28C32.224,28.882,32.128,28.919,32.032,28.919z"/>
		</g>
	</g>
	<g>
		<path fill="#B68479" d="M34.5,28.764H4.125v-7.875H34.5V28.764z M4.5,28.389h29.625v-7.125H4.5V28.389z"/>
	</g>
	<g>
		<path fill="#B68479" d="M12.984,3.516c0,0.647-0.525,1.172-1.172,1.172c-0.647,0-1.172-0.525-1.172-1.172S11.165,0,11.812,0
			C12.46,0,12.984,2.868,12.984,3.516z"/>
	</g>
	<g>
		<path fill="#B68479" d="M20.484,3.516c0,0.647-0.525,1.172-1.172,1.172s-1.172-0.525-1.172-1.172S18.665,0,19.312,0
			S20.484,2.868,20.484,3.516z"/>
	</g>
	<g>
		<path fill="#B68479" d="M27.984,3.516c0,0.647-0.525,1.172-1.172,1.172s-1.172-0.525-1.172-1.172S26.165,0,26.812,0
			S27.984,2.868,27.984,3.516z"/>
	</g>
</g>
</svg>
