<?xml version="1.0" encoding="utf-8"?>
<!-- Generator: Adobe Illustrator 17.0.0, SVG Export Plug-In . SVG Version: 6.00 Build 0)  -->
<!DOCTYPE svg PUBLIC "-//W3C//DTD SVG 1.1//EN" "http://www.w3.org/Graphics/SVG/1.1/DTD/svg11.dtd">
<svg version="1.1" id="Layer_1" xmlns="http://www.w3.org/2000/svg" xmlns:xlink="http://www.w3.org/1999/xlink" x="0px" y="0px"
	 width="29.19px" height="29.19px" viewBox="0 0 29.19 29.19" enable-background="new 0 0 29.19 29.19" xml:space="preserve">
<g>
	<g>
		<path fill="#B68479" d="M22.409,29.19H2.549C1.143,29.19,0,28.046,0,26.641V6.781c0-1.405,1.143-2.548,2.548-2.548H16.45
			c0.311,0,0.562,0.252,0.562,0.562s-0.252,0.562-0.562,0.562H2.549c-0.785,0-1.423,0.638-1.423,1.423v19.86
			c0,0.785,0.639,1.423,1.423,1.423h19.86c0.785,0,1.424-0.638,1.424-1.423V12.739c0-0.311,0.252-0.562,0.562-0.562
			s0.562,0.252,0.562,0.562v13.902C24.958,28.046,23.814,29.19,22.409,29.19z"/>
	</g>
	<g>
		<path fill="#B68479" d="M28.367,0.823c-1.097-1.097-2.875-1.097-3.972,0L6.521,18.697l-1.986,5.958l5.958-1.986L28.367,4.795
			C29.464,3.698,29.464,1.92,28.367,0.823z"/>
	</g>
</g>
</svg>
