<?xml version="1.0" encoding="utf-8"?>
<!-- Generator: Adobe Illustrator 17.0.0, SVG Export Plug-In . SVG Version: 6.00 Build 0)  -->
<!DOCTYPE svg PUBLIC "-//W3C//DTD SVG 1.1//EN" "http://www.w3.org/Graphics/SVG/1.1/DTD/svg11.dtd">
<svg version="1.1" id="Layer_1" xmlns="http://www.w3.org/2000/svg" xmlns:xlink="http://www.w3.org/1999/xlink" x="0px" y="0px"
	 width="198.607px" height="260.995px" viewBox="-105.11 -121.122 198.607 260.995"
	 enable-background="new -105.11 -121.122 198.607 260.995" xml:space="preserve">
<g>
	<g>
		<path fill="#B68479" d="M-75.704,74.219h6.3v42.299h-9.119V83.579l-7.319,1.8l-1.92-7.56L-75.704,74.219z"/>
	</g>
</g>
<g>
	<g>
		<path fill="#B68479" d="M41.117,74.219h6.3v42.299h-9.119V83.579l-7.32,1.8l-1.92-7.56L41.117,74.219z"/>
		<path fill="#B68479" d="M74.777,117.237c-11.22,0-18.599-9.42-18.599-21.659s7.499-21.779,18.719-21.779s18.6,9.42,18.6,21.659
			S85.997,117.237,74.777,117.237z M74.777,82.139c-5.579,0-9.119,5.58-9.119,13.319c0,7.74,3.659,13.439,9.239,13.439
			s9.12-5.64,9.12-13.319S80.357,82.139,74.777,82.139z"/>
	</g>
</g>
<g>
	<g>
		<path fill="#B68479" d="M0.819,88.257V93.4h-33.803v-5.143H0.819z M0.819,97.949v5.144h-33.803v-5.144H0.819z"/>
	</g>
</g>
<g>
	<g>
		<path fill="#B68479" d="M43.028,135.727h-2.721v3.953h-1.265v-11.204h4.193c2.529,0,4.193,1.345,4.193,3.569
			C47.43,134.478,45.413,135.727,43.028,135.727z M43.14,129.644h-2.833v4.931h2.769c1.856,0,3.073-0.993,3.073-2.481
			C46.149,130.477,44.949,129.644,43.14,129.644z"/>
		<path fill="#B68479" d="M53.22,139.873c-2.481,0-4.29-1.953-4.29-4.306c0-2.354,1.825-4.338,4.322-4.338
			c2.48,0,4.306,1.953,4.306,4.306S55.717,139.873,53.22,139.873z M53.22,132.318c-1.793,0-3.025,1.424-3.025,3.217
			s1.312,3.233,3.058,3.233c1.792,0,3.041-1.425,3.041-3.201C56.293,133.759,54.964,132.318,53.22,132.318z"/>
		<path fill="#B68479" d="M59.809,129.597v-1.36h1.409v1.36H59.809z M59.889,139.681v-8.275h1.232v8.275H59.889z"/>
		<path fill="#B68479" d="M65.219,139.681h-1.232v-8.275h1.232v1.44c0.544-0.896,1.408-1.616,2.833-1.616
			c2.001,0,3.169,1.345,3.169,3.313v5.138h-1.232v-4.834c0-1.536-0.832-2.497-2.289-2.497c-1.425,0-2.48,1.041-2.48,2.594V139.681z"
			/>
		<path fill="#B68479" d="M75.507,137.328c0,1.008,0.561,1.376,1.393,1.376c0.416,0,0.769-0.08,1.201-0.288v1.057
			c-0.433,0.225-0.896,0.353-1.489,0.353c-1.328,0-2.337-0.656-2.337-2.337v-4.994h-1.152v-1.089h1.152v-2.497h1.232v2.497h2.625
			v1.089h-2.625V137.328z"/>
		<path fill="#B68479" d="M83.043,139.841c-1.185,0-2.497-0.464-3.425-1.217l0.624-0.88c0.896,0.672,1.889,1.057,2.865,1.057
			c0.992,0,1.713-0.513,1.713-1.312v-0.032c0-0.832-0.977-1.152-2.065-1.457c-1.296-0.368-2.736-0.816-2.736-2.337v-0.031
			c0-1.425,1.184-2.369,2.816-2.369c1.009,0,2.129,0.352,2.978,0.912l-0.561,0.929c-0.768-0.496-1.648-0.801-2.448-0.801
			c-0.977,0-1.602,0.513-1.602,1.2v0.032c0,0.784,1.024,1.089,2.129,1.425c1.281,0.384,2.657,0.88,2.657,2.369v0.032
			C85.988,138.929,84.692,139.841,83.043,139.841z"/>
	</g>
</g>
<g>
	<g>
		<path fill="#B68479" d="M-97.909,91.488v2.352h-1.536V91.44c-2.137-0.192-3.984-1.032-5.665-2.473l1.08-1.44
			c1.44,1.297,2.856,2.089,4.657,2.28v-6c-3.553-0.84-5.113-2.16-5.113-4.681c0-2.473,2.089-4.296,5.041-4.44v-1.392h1.536v1.439
			c1.8,0.168,3.192,0.84,4.584,1.92l-1.032,1.44c-1.151-0.984-2.352-1.512-3.624-1.728v5.904c3.648,0.84,5.185,2.232,5.185,4.68
			C-92.797,89.544-94.884,91.296-97.909,91.488z M-99.373,76.295c-2.017,0.072-3.265,1.248-3.265,2.712
			c0,1.368,0.624,2.256,3.265,2.929V76.295z M-97.981,84.143v5.736c2.04-0.096,3.336-1.224,3.336-2.809
			C-94.645,85.655-95.317,84.791-97.981,84.143z"/>
	</g>
</g>
<g>
	<g>
		<polygon fill="#B68479" points="-0.839,-121.122 2.477,-113.674 10.493,-112.185 4.435,-106.729 5.495,-98.646 -1.566,-102.721 
			-8.926,-99.215 -7.232,-107.19 -12.841,-113.106 -4.733,-113.959 		"/>
	</g>
	<g>
		<polygon fill="#B68479" points="33.006,-89.257 40.618,-86.337 47.339,-90.951 46.913,-82.809 53.378,-77.843 45.504,-75.732 
			42.779,-68.049 38.338,-74.886 30.188,-75.103 35.318,-81.439 		"/>
	</g>
	<g>
		<polygon fill="#B68479" points="-34.518,-88.277 -37.439,-80.665 -32.824,-73.944 -40.966,-74.37 -45.932,-67.905 
			-48.043,-75.779 -55.726,-78.504 -48.89,-82.945 -48.672,-91.095 -42.336,-85.965 		"/>
	</g>
	<g>
		<path fill="none" stroke="#B68479" stroke-width="3" stroke-miterlimit="10" d="M53.378,45.961c0,0.735-0.596,1.331-1.331,1.331
			H-54.396c-0.735,0-1.331-0.596-1.331-1.331l4.714-90.477c0-0.735,0.596-1.331,1.331-1.331h97.015c0.735,0,1.331,0.596,1.331,1.331
			L53.378,45.961z"/>
		<g>
			<g>
				<path fill="none" stroke="#B68479" stroke-width="2" stroke-miterlimit="10" d="M25.437-22.808v-36.345
					c0-14.697-11.914-26.611-26.611-26.611c-14.697,0-26.611,11.914-26.611,26.611v36.345"/>
				<g>
					<circle fill="#B68479" cx="25.437" cy="-22.996" r="3.76"/>
				</g>
				<g>
					<circle fill="#B68479" cx="-27.785" cy="-22.996" r="3.76"/>
				</g>
			</g>
		</g>
	</g>
</g>
</svg>
