<?xml version="1.0" encoding="utf-8"?>
<!-- Generator: Adobe Illustrator 17.0.0, SVG Export Plug-In . SVG Version: 6.00 Build 0)  -->
<!DOCTYPE svg PUBLIC "-//W3C//DTD SVG 1.1//EN" "http://www.w3.org/Graphics/SVG/1.1/DTD/svg11.dtd">
<svg version="1.1" id="Layer_1" xmlns="http://www.w3.org/2000/svg" xmlns:xlink="http://www.w3.org/1999/xlink" x="0px" y="0px"
	 width="789.881px" height="134.769px" viewBox="-333.178 20.39 789.881 134.769"
	 enable-background="new -333.178 20.39 789.881 134.769" xml:space="preserve">
<g>
	<g>
		<g>
			<path fill="#B68479" d="M-167.412,60.782h-23.755v10.917h21.057v6.599h-21.057v11.278h24.056v6.599h-31.434V54.182h31.134V60.782
				z"/>
		</g>
		<g>
			<path fill="#B68479" d="M-136.149,71.819c8.878,2.161,13.497,5.339,13.497,12.359c0,7.917-6.179,12.598-14.997,12.598
				c-6.419,0-12.478-2.219-17.517-6.719l4.438-5.279c4.02,3.479,8.039,5.459,13.258,5.459c4.56,0,7.44-2.099,7.44-5.339
				c0-3.06-1.682-4.679-9.48-6.479c-8.938-2.159-13.978-4.799-13.978-12.598c0-7.318,6-12.237,14.338-12.237
				c6.12,0,10.979,1.859,15.237,5.278l-3.958,5.58c-3.779-2.82-7.559-4.32-11.399-4.32c-4.318,0-6.838,2.221-6.838,5.039
				C-146.107,68.46-144.188,69.9-136.149,71.819z"/>
		</g>
		<g>
			<path fill="#B68479" d="M-65.353,92.156l-4.74,5.279l-5.039-4.499c-3.539,2.459-7.857,3.959-12.776,3.959
				c-12.899,0-21.896-9.779-21.896-21.656c0-11.878,9.117-21.776,22.017-21.776c12.896,0,21.896,9.778,21.896,21.656
				c0,4.799-1.562,9.297-4.26,12.958L-65.353,92.156z M-87.789,81.957l4.739-5.398l7.258,6.598c1.44-2.219,2.159-4.979,2.159-7.917
				c0-8.219-5.938-14.999-14.276-14.999c-8.339,0-14.159,6.659-14.159,14.878c0,8.218,5.94,14.997,14.279,14.997
				c2.76,0,5.218-0.779,7.198-2.039L-87.789,81.957z"/>
		</g>
		<g>
			<path fill="#B68479" d="M-43.149,54.182v41.993h-7.377V54.182H-43.149z"/>
		</g>
		<g>
			<path fill="#B68479" d="M-10.271,96.175h-15.658V54.182h15.658c13.197,0,22.317,9.059,22.317,20.937
				C12.046,86.996,2.926,96.175-10.271,96.175z M-10.271,60.902h-8.278v28.554h8.278c8.818,0,14.577-5.938,14.577-14.216
				C4.306,66.96-1.453,60.902-10.271,60.902z"/>
		</g>
		<g>
			<path fill="#B68479" d="M47.028,96.896c-12.898,0-21.896-9.779-21.896-21.656c0-11.878,9.119-21.776,22.017-21.776
				s21.896,9.778,21.896,21.656C69.045,86.996,59.926,96.896,47.028,96.896z M47.028,60.241c-8.339,0-14.158,6.659-14.158,14.878
				c0,8.218,5.938,14.997,14.278,14.997s14.158-6.659,14.158-14.877C61.306,67.02,55.367,60.241,47.028,60.241z"/>
		</g>
		<g>
			<path fill="#B68479" d="M106.31,54.182h19.856c6.419,0,10.859,1.68,13.679,4.559c2.459,2.401,3.719,5.64,3.719,9.779v0.12
				c0,6.419-3.42,10.677-8.638,12.898l10.018,14.637h-13.437l-8.459-12.718h-0.12h-4.979v12.718H106.31V54.182z M125.627,74.339
				c3.959,0,6.239-1.919,6.239-4.979v-0.12c0-3.299-2.399-4.979-6.299-4.979h-7.619v10.078H125.627z"/>
		</g>
		<g>
			<path fill="#B68479" d="M155.451,54.182h33.773v9.898h-22.257v6.359h20.156v9.179h-20.156v6.659h22.556v9.898h-34.072V54.182z"/>
		</g>
		<g>
			<path fill="#B68479" d="M198.65,54.182h12.299l7.318,24.296l8.098-24.416h10.02l8.098,24.416l7.318-24.296h12.059l-14.039,42.293
				h-10.137L231.225,72.3l-8.399,24.176h-10.14L198.65,54.182z"/>
		</g>
		<g>
			<path fill="#B68479" d="M283.608,53.882h11.218l17.877,42.293h-12.478l-3.062-7.499h-16.195l-3,7.499h-12.237L283.608,53.882z
				 M293.806,79.618l-4.682-11.937l-4.737,11.937H293.806z"/>
		</g>
		<g>
			<path fill="#B68479" d="M322.789,54.182h19.857c6.419,0,10.857,1.68,13.676,4.559c2.461,2.401,3.721,5.64,3.721,9.779v0.12
				c0,6.419-3.419,10.677-8.64,12.898l10.02,14.637h-13.438l-8.458-12.718h-0.12h-4.98v12.718h-11.637V54.182z M342.105,74.339
				c3.961,0,6.24-1.919,6.24-4.979v-0.12c0-3.299-2.399-4.979-6.299-4.979h-7.62v10.078H342.105z"/>
		</g>
		<g>
			<path fill="#B68479" d="M371.929,54.182h16.195c15,0,23.698,8.638,23.698,20.757v0.12c0,12.117-8.818,21.116-23.936,21.116
				h-15.958V54.182z M388.306,85.857c6.958,0,11.578-3.839,11.578-10.617v-0.12c0-6.719-4.62-10.619-11.578-10.619h-4.74v21.356
				H388.306z"/>
		</g>
		<g>
			<path fill="#B68479" d="M420.049,89.936l6.478-7.739c4.14,3.3,8.76,5.039,13.617,5.039c3.12,0,4.799-1.08,4.799-2.88v-0.119
				c0-1.74-1.38-2.7-7.078-4.02c-8.938-2.041-15.838-4.56-15.838-13.198V66.9c0-7.799,6.179-13.437,16.257-13.437
				c7.14,0,12.718,1.919,17.279,5.578l-5.821,8.219c-3.838-2.7-8.036-4.14-11.757-4.14c-2.818,0-4.198,1.2-4.198,2.7v0.12
				c0,1.919,1.438,2.76,7.257,4.08c9.659,2.099,15.659,5.219,15.659,13.077v0.12c0,8.58-6.779,13.679-16.978,13.679
				C432.286,96.896,425.208,94.557,420.049,89.936z"/>
		</g>
	</g>
	<g>
		<g>
			<path fill="#FDF5F2" d="M-186.548,149.61c-7.648,0-13.348-5.96-13.348-13.534c0-7.499,5.587-13.608,13.535-13.608
				c4.837,0,7.761,1.686,10.271,4.085l-2.962,3.412c-2.098-1.95-4.348-3.261-7.348-3.261c-5.024,0-8.66,4.124-8.66,9.297
				s3.636,9.372,8.66,9.372c3.226,0,5.287-1.311,7.535-3.412l2.962,3C-178.638,147.811-181.638,149.61-186.548,149.61z"/>
		</g>
		<g>
			<path fill="#FDF5F2" d="M-162.548,149.61c-6.035,0-10.497-4.611-10.497-10.271c0-5.7,4.499-10.386,10.573-10.386
				c6.073,0,10.534,4.611,10.534,10.311C-151.938,144.924-156.436,149.61-162.548,149.61z M-162.548,132.927
				c-3.636,0-5.96,2.849-5.96,6.337c0,3.523,2.512,6.41,6.037,6.41c3.674,0,5.997-2.849,5.997-6.335
				C-156.474,135.814-158.985,132.927-162.548,132.927z"/>
		</g>
		<g>
			<path fill="#FDF5F2" d="M-147.058,149.16v-27.368h4.537v27.368H-147.058z"/>
		</g>
		<g>
			<path fill="#FDF5F2" d="M-136.333,149.16v-27.368h4.535v27.368H-136.333z"/>
		</g>
		<g>
			<path fill="#FDF5F2" d="M-116.723,145.899c2.212,0,3.787-0.825,5.361-2.363l2.662,2.363c-1.875,2.249-4.462,3.71-8.098,3.71
				c-5.736,0-10.16-4.162-10.16-10.31c0-5.698,4.011-10.348,9.672-10.348c6.299,0,9.485,4.95,9.485,10.685
				c0,0.413-0.038,0.788-0.075,1.238h-14.546C-121.897,144.099-119.648,145.899-116.723,145.899z M-112.299,137.876
				c-0.3-2.925-2.024-5.212-5.023-5.212c-2.774,0-4.726,2.137-5.137,5.212H-112.299z"/>
		</g>
		<g>
			<path fill="#FDF5F2" d="M-94.074,149.61c-5.886,0-10.235-4.611-10.235-10.271c0-5.662,4.349-10.386,10.271-10.386
				c3.75,0,6.075,1.387,7.912,3.412l-2.811,3.037c-1.389-1.462-2.851-2.474-5.137-2.474c-3.299,0-5.698,2.849-5.698,6.337
				c0,3.561,2.436,6.41,5.922,6.41c2.139,0,3.712-1.012,5.137-2.474l2.736,2.7C-87.926,148.073-90.212,149.61-94.074,149.61z"/>
		</g>
		<g>
			<path fill="#FDF5F2" d="M-76.336,142.974c0,1.762,0.899,2.474,2.438,2.474c1.012,0,1.912-0.224,2.812-0.674v3.712
				c-1.125,0.637-2.399,1.012-4.087,1.012c-3.337,0-5.698-1.463-5.698-5.811v-10.422h-2.514v-3.899h2.514v-5.436h4.535v5.436h5.323
				v3.899h-5.323V142.974z"/>
		</g>
		<g>
			<path fill="#FDF5F2" d="M-43.938,149.573c-3.262,0-5.325-1.649-6.71-3.486v9.072h-4.538v-25.793h4.538v3.299
				c1.462-2.062,3.524-3.712,6.71-3.712c4.686,0,9.223,3.712,9.223,10.311C-34.715,145.861-39.214,149.573-43.938,149.573z
				 M-44.988,132.89c-3.073,0-5.774,2.511-5.774,6.374c0,3.861,2.701,6.372,5.774,6.372c3.111,0,5.662-2.436,5.662-6.372
				C-39.327,135.364-41.913,132.89-44.988,132.89z"/>
		</g>
		<g>
			<path fill="#FDF5F2" d="M-20.651,149.61c-6.035,0-10.497-4.611-10.497-10.271c0-5.7,4.5-10.386,10.573-10.386
				s10.535,4.611,10.535,10.311C-10.04,144.924-14.54,149.61-20.651,149.61z M-20.651,132.927c-3.636,0-5.96,2.849-5.96,6.337
				c0,3.523,2.512,6.41,6.037,6.41c3.674,0,5.999-2.849,5.999-6.335C-14.577,135.814-17.089,132.927-20.651,132.927z"/>
		</g>
		<g>
			<path fill="#FDF5F2" d="M-5.348,126.329v-4.312h4.874v4.312H-5.348z M-5.161,149.16v-19.794h4.537v19.794H-5.161z"/>
		</g>
		<g>
			<path fill="#FDF5F2" d="M9.838,149.16H5.301v-19.794h4.537v3.073c1.274-1.874,3.111-3.486,6.186-3.486
				c4.462,0,7.049,3,7.049,7.611v12.596h-4.537v-11.247c0-3.075-1.538-4.835-4.236-4.835c-2.625,0-4.462,1.837-4.462,4.91V149.16z"
				/>
		</g>
		<g>
			<path fill="#FDF5F2" d="M34.026,142.974c0,1.762,0.899,2.474,2.436,2.474c1.012,0,1.913-0.224,2.812-0.674v3.712
				c-1.125,0.637-2.399,1.012-4.087,1.012c-3.337,0-5.698-1.463-5.698-5.811v-10.422h-2.512v-3.899h2.512v-5.436h4.537v5.436h5.323
				v3.899h-5.323V142.974z"/>
		</g>
		<g>
			<path fill="#FDF5F2" d="M50.713,149.535c-2.812,0-5.924-1.012-8.398-2.962l2.024-3.073c2.136,1.611,4.46,2.436,6.485,2.436
				c1.95,0,3.075-0.825,3.075-2.137v-0.075c0-1.537-2.099-2.061-4.424-2.774c-2.924-0.825-6.186-2.024-6.186-5.811v-0.075
				c0-3.749,3.111-6.037,7.049-6.037c2.474,0,5.174,0.863,7.273,2.25l-1.8,3.224c-1.912-1.162-3.936-1.875-5.585-1.875
				c-1.762,0-2.774,0.825-2.774,1.988v0.075c0,1.425,2.137,2.024,4.462,2.774c2.886,0.899,6.148,2.212,6.148,5.773v0.076
				C58.061,147.474,54.837,149.535,50.713,149.535z"/>
		</g>
		<g>
			<path fill="#FDF5F2" d="M92.634,149.686l-3.486-3.562c-2.249,2.099-4.874,3.412-8.06,3.412c-4.875,0-8.549-2.924-8.549-7.535
				c0-3.412,1.988-5.849,5.587-7.386c-1.5-1.95-2.175-3.562-2.175-5.511c0-3.562,2.849-6.636,7.537-6.636
				c4.16,0,6.973,2.773,6.973,6.372c0,3.488-2.287,5.549-5.773,6.861l4.499,4.575c1.012-1.5,1.95-3.226,2.811-5.062l3.488,1.837
				c-1.05,2.101-2.213,4.162-3.562,5.999l4.124,4.2L92.634,149.686z M80.675,137.463c-2.438,1.05-3.486,2.662-3.486,4.386
				c0,2.25,1.837,3.863,4.386,3.863c1.8,0,3.45-0.863,4.95-2.288L80.675,137.463z M83.375,126.103c-1.875,0-3.113,1.312-3.113,3.188
				c0,1.349,0.526,2.323,1.988,3.936c2.7-0.976,4.124-2.175,4.124-4.124C86.373,127.266,85.137,126.103,83.375,126.103z"/>
		</g>
		<g>
			<path fill="#FDF5F2" d="M120.425,145.899c2.212,0,3.787-0.825,5.361-2.363l2.662,2.363c-1.875,2.249-4.462,3.71-8.098,3.71
				c-5.736,0-10.16-4.162-10.16-10.31c0-5.698,4.011-10.348,9.672-10.348c6.299,0,9.485,4.95,9.485,10.685
				c0,0.413-0.037,0.788-0.075,1.238h-14.546C115.251,144.099,117.501,145.899,120.425,145.899z M124.849,137.876
				c-0.3-2.925-2.024-5.212-5.023-5.212c-2.774,0-4.724,2.137-5.137,5.212H124.849z"/>
		</g>
		<g>
			<path fill="#FDF5F2" d="M146.036,149.16v-2.436c-1.349,1.611-3.412,2.849-6.412,2.849c-3.749,0-7.047-2.137-7.047-6.111v-0.075
				c0-4.274,3.412-6.374,8.023-6.374c2.399,0,3.936,0.337,5.473,0.825v-0.488c0-2.736-1.724-4.236-4.874-4.236
				c-2.212,0-3.861,0.488-5.66,1.238l-1.238-3.637c2.174-0.974,4.311-1.649,7.535-1.649c5.849,0,8.698,3.075,8.698,8.36v11.735
				H146.036z M146.149,140.762c-1.163-0.45-2.774-0.787-4.537-0.787c-2.849,0-4.537,1.162-4.537,3.186v0.075
				c0,1.875,1.688,2.925,3.825,2.925c2.999,0,5.249-1.688,5.249-4.162V140.762z"/>
		</g>
		<g>
			<path fill="#FDF5F2" d="M160.475,149.16h-4.537v-19.794h4.537v4.46c1.238-2.96,3.524-4.986,7.011-4.835v4.799h-0.262
				c-3.974,0-6.749,2.587-6.749,7.835V149.16z"/>
		</g>
		<g>
			<path fill="#FDF5F2" d="M175.963,149.16h-4.537v-19.794h4.537v3.073c1.274-1.874,3.111-3.486,6.186-3.486
				c4.462,0,7.049,3,7.049,7.611v12.596h-4.537v-11.247c0-3.075-1.538-4.835-4.236-4.835c-2.625,0-4.462,1.837-4.462,4.91V149.16z"
				/>
		</g>
		<g>
			<path fill="#FDF5F2" d="M210.463,149.16h-4.537v-19.794h4.537v4.46c1.238-2.96,3.524-4.986,7.011-4.835v4.799h-0.262
				c-3.974,0-6.749,2.587-6.749,7.835V149.16z"/>
		</g>
		<g>
			<path fill="#FDF5F2" d="M229.888,145.899c2.212,0,3.787-0.825,5.361-2.363l2.662,2.363c-1.875,2.249-4.462,3.71-8.098,3.71
				c-5.736,0-10.16-4.162-10.16-10.31c0-5.698,4.011-10.348,9.672-10.348c6.299,0,9.485,4.95,9.485,10.685
				c0,0.413-0.037,0.788-0.075,1.238H224.19C224.714,144.099,226.964,145.899,229.888,145.899z M234.312,137.876
				c-0.3-2.925-2.024-5.212-5.024-5.212c-2.773,0-4.723,2.137-5.136,5.212H234.312z"/>
		</g>
		<g>
			<path fill="#FDF5F2" d="M262.097,142.937l4.049-13.572h4.537l-6.485,19.945h-4.05l-4.424-13.535l-4.46,13.535h-4.049
				l-6.412-19.945h4.649l3.974,13.572l4.386-13.646h3.861L262.097,142.937z"/>
		</g>
		<g>
			<path fill="#FDF5F2" d="M286.099,149.16v-2.436c-1.349,1.611-3.412,2.849-6.412,2.849c-3.749,0-7.047-2.137-7.047-6.111v-0.075
				c0-4.274,3.412-6.374,8.023-6.374c2.399,0,3.936,0.337,5.473,0.825v-0.488c0-2.736-1.724-4.236-4.874-4.236
				c-2.212,0-3.861,0.488-5.66,1.238l-1.238-3.637c2.174-0.974,4.311-1.649,7.535-1.649c5.849,0,8.698,3.075,8.698,8.36v11.735
				H286.099z M286.212,140.762c-1.163-0.45-2.774-0.787-4.537-0.787c-2.849,0-4.537,1.162-4.537,3.186v0.075
				c0,1.875,1.688,2.925,3.825,2.925c2.999,0,5.249-1.688,5.249-4.162V140.762z"/>
		</g>
		<g>
			<path fill="#FDF5F2" d="M300.538,149.16h-4.537v-19.794h4.537v4.46c1.238-2.96,3.524-4.986,7.011-4.835v4.799h-0.262
				c-3.974,0-6.749,2.587-6.749,7.835V149.16z"/>
		</g>
		<g>
			<path fill="#FDF5F2" d="M325.847,149.16v-3.299c-1.462,2.062-3.523,3.712-6.747,3.712c-4.649,0-9.186-3.712-9.186-10.31
				c0-6.599,4.462-10.311,9.186-10.311c3.261,0,5.323,1.649,6.747,3.486v-10.646h4.537v27.368H325.847z M320.187,132.89
				c-3.111,0-5.698,2.399-5.698,6.374c0,3.898,2.624,6.372,5.698,6.372c3.037,0,5.736-2.511,5.736-6.372
				C325.923,135.401,323.224,132.89,320.187,132.89z"/>
		</g>
		<g>
			<path fill="#FDF5F2" d="M342.838,149.535c-2.812,0-5.924-1.012-8.398-2.962l2.024-3.073c2.136,1.611,4.46,2.436,6.485,2.436
				c1.95,0,3.075-0.825,3.075-2.137v-0.075c0-1.537-2.099-2.061-4.424-2.774c-2.924-0.825-6.186-2.024-6.186-5.811v-0.075
				c0-3.749,3.111-6.037,7.049-6.037c2.474,0,5.174,0.863,7.273,2.25l-1.8,3.224c-1.912-1.162-3.936-1.875-5.585-1.875
				c-1.762,0-2.774,0.825-2.774,1.988v0.075c0,1.425,2.137,2.024,4.462,2.774c2.886,0.899,6.148,2.212,6.148,5.773v0.076
				C350.186,147.474,346.962,149.535,342.838,149.535z"/>
		</g>
	</g>
	<g>
		<path fill="#B68479" d="M-237.023,62.481h-25.058c-2.899,0-5.25-2.351-5.25-5.25s2.351-5.25,5.25-5.25h25.058
			c2.899,0,5.25,2.351,5.25,5.25S-234.124,62.481-237.023,62.481z"/>
	</g>
	<g>
		<path fill="#B68479" d="M-249.552,75.01c-2.899,0-5.25-2.351-5.25-5.25V44.702c0-2.899,2.351-5.25,5.25-5.25s5.25,2.351,5.25,5.25
			V69.76C-244.302,72.659-246.653,75.01-249.552,75.01z"/>
	</g>
	<g>
		<path fill="#B68479" d="M-312.386,114.985c-0.618,0-1.238-0.19-1.764-0.573c-1.052-0.765-1.491-2.118-1.09-3.354l10.321-31.767
			l-27.023-19.633c-1.052-0.765-1.491-2.118-1.09-3.354s1.554-2.073,2.854-2.073h33.403l10.321-31.768
			c0.401-1.236,1.554-2.073,2.854-2.073s2.452,0.836,2.854,2.073l7.479,23.02c0.511,1.576-0.35,3.268-1.926,3.781
			c-1.575,0.513-3.27-0.352-3.781-1.926l-4.626-14.238l-8.142,25.059c-0.401,1.236-1.554,2.073-2.854,2.073h-26.35l21.318,15.488
			c1.052,0.765,1.491,2.118,1.09,3.354l-8.142,25.058l21.315-15.486c1.052-0.765,2.476-0.765,3.527,0l21.316,15.486l-8.143-25.058
			c-0.511-1.576,0.35-3.268,1.926-3.781c1.581-0.511,3.27,0.353,3.781,1.926l10.997,33.839c0.401,1.236-0.038,2.59-1.09,3.354
			s-2.476,0.765-3.527,0L-283.6,94.779l-27.022,19.633C-311.148,114.795-311.768,114.985-312.386,114.985z"/>
	</g>
</g>
</svg>
