<?xml version="1.0" encoding="utf-8"?>
<!-- Generator: Adobe Illustrator 22.0.1, SVG Export Plug-In . SVG Version: 6.00 Build 0)  -->
<svg version="1.1" id="Layer_1" xmlns="http://www.w3.org/2000/svg" xmlns:xlink="http://www.w3.org/1999/xlink" x="0px" y="0px"
	 viewBox="0 0 100 99" style="enable-background:new 0 0 100 99;" xml:space="preserve">
<path d="M50,11.3c-21.3,0-38.7,17.4-38.7,38.7S28.7,88.7,50,88.7S88.7,71.3,88.7,50S71.3,11.3,50,11.3z M86.3,50
	c0,9.6-3.7,18.3-9.8,24.8L69,67.3c0.5-0.8,0.8-1.7,0.8-2.7c-0.1-1.6-1.5-2.4-2.6-2.9c-0.4-0.2-0.9-0.4-1-0.6c-0.4-0.5-0.5-1-0.2-1.5
	c0.4-0.8,1.4-1.4,2.2-1.4c2.4,0.1,8.9,0.4,10-5c0.5-2.6-0.2-3.6-1-4.8c-0.3-0.4-0.5-0.8-0.8-1.3c-1-1.8-2.3-4.2-4.5-5.7
	c-1.6-1.1-3.2-1.6-4.7-2.2c-0.5-0.2-0.9-0.3-1.4-0.5c1.1-3.8,0.7-7.6-1.3-11.7c-0.8-1.7-2.4-3.7-4.4-4.2c-1.1-0.3-2.2-0.1-3.1,0.5
	c-3.9,2.6-1.4,8.8,0.5,11.7c1.4,2.2,3,3.6,4.6,4.5c-0.1,0.1-0.1,0.1-0.2,0.2l-0.2,0.2c-0.7,0.5-1.1,1.2-1.5,1.8
	c-0.1,0.2-0.3,0.4-0.4,0.6c0,0,0,0,0,0c-0.3-0.2-0.7-0.7-0.9-1c-0.3-0.4-0.7-0.9-1.1-1.3c-4.9-5-10.2-6.8-17.2-5.7
	c-1.2,0.2-2.4,0.5-3.5,0.9L25.2,23.5c6.5-6.1,15.2-9.8,24.8-9.8C70,13.7,86.3,30,86.3,50z M49.3,66.7c0,0.2,0,0.4,0,0.5
	c0,0-0.3,0.3-1.9,0.4c-11.2,0.9-17.8-2.5-19.8-10.2c-0.2-0.7-0.3-1.4-0.5-1.9c-0.2-1-0.4-1.8-0.7-2.5c0.5-2.9,0.9-4.7,2-7.1
	c1.6-3.3,4.5-6.2,7.9-7.9l29.1,29.1c-0.1,0-0.3,0.1-0.4,0.1c-2.3,0.4-4.2,0.5-6.4,0.1c-1.5-0.3-2-1.2-2.6-2.2
	c-0.4-0.8-0.9-1.5-1.8-2c-0.9-0.5-1.9-0.5-2.8-0.2c-1,0.4-1.7,1.2-2,2.2C49.2,65.7,49.2,66.3,49.3,66.7z M38.7,37.1
	c0.7-0.2,1.3-0.4,2-0.5c6.2-0.9,10.8,0.6,15.2,5c0.3,0.3,0.7,0.7,1,1.1c0.9,1.1,1.7,2.1,2.9,2c0.7,0,1.3-0.4,1.8-1.1
	c0.2-0.2,0.3-0.5,0.5-0.7c0.3-0.5,0.6-1,1-1.3l0.2-0.2c0.4-0.3,0.7-0.5,1.1-0.8c0.6,0.3,1.3,0.5,1.9,0.7c1.5,0.5,2.9,1,4.2,1.9
	c1.7,1.2,2.8,3.2,3.7,4.8c0.3,0.6,0.7,1.1,1,1.5c0.7,1,1,1.4,0.7,3c-0.5,2.4-2.7,3.3-7.5,3.1c-1.7-0.1-3.6,1.1-4.4,2.6
	c-0.7,1.3-0.5,2.8,0.4,4.1c0.4,0.6,1.1,0.9,1.8,1.2c0.5,0.3,1.3,0.7,1.3,1c0,0.3,0,0.6-0.1,0.8L38.7,37.1z M59.4,33.7
	c-1.6-2.5-3.4-7-1.2-8.5c0.2-0.2,0.5-0.2,0.7-0.2c0.1,0,0.3,0,0.4,0.1c1,0.3,2.2,1.5,2.9,3c1.7,3.4,2.1,6.5,1.3,9.6
	C62.1,36.8,60.7,35.6,59.4,33.7z M13.7,50c0-9.6,3.7-18.3,9.8-24.8l11.1,11.1c-3.6,1.9-6.6,5-8.3,8.6c-0.9,2-1.4,3.6-1.8,5.6
	c0,0-0.1,0-0.1-0.1c-1.3-0.9-3-0.9-4.3,0.1c-1.1,0.8-1.9,2.5-1,4.5c0.4,0.9,1.1,1.6,2.1,1.9c1,0.3,2.1,0.2,3-0.3
	c0.2-0.1,0.4-0.3,0.6-0.5c0.1,0.5,0.3,1.1,0.4,1.8c2.1,8.1,8.4,12.2,18.7,12.2c1.2,0,2.4-0.1,3.7-0.2c1.8-0.2,2.9-0.6,3.5-1.3
	c0.6-0.8,0.6-1.7,0.5-2.3c0-0.2-0.1-0.5,0-0.6c0.1-0.3,0.4-0.6,0.7-0.7c0.3-0.1,0.6-0.1,0.8,0.1c0.3,0.1,0.5,0.6,0.8,1.1
	c0.7,1.2,1.7,2.8,4.2,3.3c2.6,0.5,5,0.3,7.2-0.1c0.6-0.1,1.3-0.3,1.9-0.7l7.6,7.6c-6.5,6.1-15.2,9.8-24.8,9.8
	C30,86.3,13.7,70,13.7,50z M23.9,53.3c-0.2,0.7-0.7,1.2-0.9,1.4c-0.3,0.2-0.6,0.2-1,0.1c-0.3-0.1-0.6-0.3-0.7-0.6
	c-0.3-0.7-0.2-1.4,0.3-1.8c0.2-0.2,0.5-0.3,0.8-0.3c0.2,0,0.4,0.1,0.6,0.2C23.4,52.6,23.7,52.9,23.9,53.3z"/>
</svg>
