<?xml version="1.0" encoding="utf-8"?>
<!-- Generator: Adobe Illustrator 22.0.1, SVG Export Plug-In . SVG Version: 6.00 Build 0)  -->
<svg version="1.1" id="Layer_1" xmlns="http://www.w3.org/2000/svg" xmlns:xlink="http://www.w3.org/1999/xlink" x="0px" y="0px"
	 viewBox="0 0 70 71.2" style="enable-background:new 0 0 70 71.2;" xml:space="preserve">
<style type="text/css">
	.st0{fill:none;stroke:#000000;stroke-width:2;stroke-miterlimit:10;}
</style>
<path d="M58,39.1c2.3,0,4.1-1.9,4.1-4.2c0-2.3-1.8-4.2-4.1-4.2h-7.3l4.5-12.3c0.4,0.2,1,0.3,1.4,0.3c0.4,0,0.9-0.1,1.2-0.3
	c0.9-0.4,1.6-1.1,2-1.9c0.8-1.8,0-3.9-1.8-4.8L46.9,6.6c-0.9-0.4-1.8-0.4-2.7-0.1c-0.9,0.4-1.6,1.1-2,1.9c-0.8,1.8,0,3.9,1.8,4.7
	L33.7,30.7H12c-2.3,0-4.1,1.9-4.1,4.2c0,2.3,1.8,4.2,4.1,4.2h0.2c0.3,9.6,5.3,19.3,12.3,23.2c1.6,0.9,3.4,1.4,5.3,1.4H40
	c1.8,0,3.7-0.4,5.3-1.4c6.9-3.9,12-13.6,12.3-23.2C57.5,39.1,58,39.1,58,39.1z M43.8,9.1c0.2-0.4,0.6-0.8,1.1-1
	c0.2-0.1,0.4-0.1,0.6-0.1c0.3,0,0.5,0.1,0.7,0.2l11.2,5.2c1,0.4,1.3,1.6,0.9,2.5c-0.2,0.4-0.6,0.8-1.1,1c-0.4,0.2-1,0.2-1.3-0.1
	l-0.7-0.4c0,0,0,0-0.1,0L45.5,12l0,0l-0.9-0.4C43.8,11.2,43.3,10.1,43.8,9.1z M45.5,14l8.2,3.8l-4.7,13H35.8L45.5,14z M9.7,34.9
	c0-1.3,1.1-2.5,2.4-2.5h46c1.3,0,2.4,1.1,2.4,2.5c0,1.3-1.1,2.5-2.4,2.5h-1.2H13h-1C10.7,37.4,9.7,36.2,9.7,34.9z M44.5,60.9
	c-1.3,0.8-2.9,1.1-4.4,1.1H29.7c-1.6,0-3.1-0.4-4.4-1.1C19,57.2,14.2,48.2,14,39.1h42C55.6,48.2,50.9,57.2,44.5,60.9z"/>
<path class="st0" d="M41.1,45.2c-1.7-1.7-4.3-1.7-5.9,0l-0.3,0.3l-0.3-0.3c-1.7-1.7-4.3-1.7-5.9,0c-1.6,1.7-1.7,4.3,0,5.9l3.2,3.2
	l3,3l3-3l3.2-3.2C42.7,49.4,42.7,46.8,41.1,45.2z"/>
</svg>
