<?xml version="1.0" encoding="utf-8"?>
<!-- Generator: Adobe Illustrator 22.0.1, SVG Export Plug-In . SVG Version: 6.00 Build 0)  -->
<svg version="1.1"
	 id="Layer_1" xmlns:cc="http://creativecommons.org/ns#" xmlns:dc="http://purl.org/dc/elements/1.1/" xmlns:inkscape="http://www.inkscape.org/namespaces/inkscape" xmlns:rdf="http://www.w3.org/1999/02/22-rdf-syntax-ns#" xmlns:sodipodi="http://sodipodi.sourceforge.net/DTD/sodipodi-0.dtd" xmlns:svg="http://www.w3.org/2000/svg"
	 xmlns="http://www.w3.org/2000/svg" xmlns:xlink="http://www.w3.org/1999/xlink" x="0px" y="0px" viewBox="0 0 100 103"
	 style="enable-background:new 0 0 100 103;" xml:space="preserve">
<g transform="translate(0,-952.36218)">
	<path d="M49.8,963.3c-0.4,0-0.9,0.3-1.2,0.5c-13.1,14.2-25.3,32.8-25.3,48.7c0,15.8,11.9,28.9,26.7,28.9s26.7-13.1,26.7-28.9
		c0-15.9-12.3-34.5-25.3-48.7C51,963.4,50.4,963.2,49.8,963.3z M50,967.8c12.3,13.7,23.1,31.2,23.1,44.7c0,14.1-10.4,25.3-23.1,25.3
		s-23.1-11.3-23.1-25.3C26.9,999,37.7,981.5,50,967.8z M33.1,1008.5c-0.9,0-1.7,0.8-1.7,1.7c0,0.5-0.1,1.1-0.1,1.6
		c0,7.4,3.5,14,8.7,17.8c0.8,0.5,1.9,0.4,2.5-0.4c0.6-0.8,0.4-1.9-0.4-2.5c-4.3-3.1-7.3-8.5-7.3-14.8c0-0.4,0-0.9,0.1-1.3
		c0.1-1-0.6-1.9-1.6-2C33.2,1008.5,33.2,1008.5,33.1,1008.5z"/>
</g>
</svg>
